<svg width="27" height="22" viewBox="0 0 27 22" fill="none" xmlns="http://www.w3.org/2000/svg">
<path d="M15.7833 4.66027C15.8039 4.59174 15.8009 4.51829 15.7749 4.45163C15.7489 4.38497 15.7014 4.32891 15.6399 4.29239C15.5783 4.25644 15.5063 4.24254 15.4357 4.25296C15.3652 4.26339 15.3003 4.29753 15.2517 4.34977L10.2095 9.72783C10.1676 9.77289 10.1397 9.82915 10.1292 9.88977C10.1187 9.95039 10.1261 10.0127 10.1504 10.0693C10.1748 10.1258 10.215 10.174 10.2662 10.208C10.3174 10.2421 10.3775 10.2605 10.439 10.2611H12.5332L11.3975 13.9651C11.3769 14.0337 11.3799 14.1071 11.4059 14.1738C11.4319 14.2404 11.4794 14.2965 11.5409 14.333C11.6675 14.4056 11.8278 14.3836 11.9291 14.2756L16.7891 8.89758C16.831 8.85242 16.8589 8.796 16.8694 8.73523C16.8798 8.67445 16.8723 8.61196 16.8478 8.55538C16.8232 8.49881 16.7828 8.45061 16.7313 8.41668C16.6798 8.38275 16.6195 8.36456 16.5579 8.36433H14.4637L15.7833 4.66027Z" fill="white"/>
<path d="M8.13038 0.875001C7.30446 0.874596 6.49659 1.11663 5.80694 1.57109C5.1173 2.02556 4.57623 2.67245 4.25081 3.43156L2.91431 6.55006C2.7887 6.84651 2.56127 7.0883 2.27306 7.23181C1.42931 7.65369 0.83025 8.43838 0.644625 9.36144L0.0826875 12.1948C0.0279801 12.467 0.000283214 12.7439 0 13.0216V13.7186C0 15.0922 0.658125 16.3224 1.6875 17.0885V20.2812C1.6875 20.505 1.7764 20.7196 1.93463 20.8779C2.09286 21.0361 2.30747 21.125 2.53125 21.125H5.90625C6.13003 21.125 6.34464 21.0361 6.50287 20.8779C6.66111 20.7196 6.75 20.505 6.75 20.2812V18.0234C8.93025 18.1044 11.3822 18.1719 13.5 18.1719C15.6178 18.1719 18.0698 18.1044 20.25 18.0234V20.2812C20.25 20.505 20.3389 20.7196 20.4971 20.8779C20.6554 21.0361 20.87 21.125 21.0938 21.125H24.4688C24.6925 21.125 24.9071 21.0361 25.0654 20.8779C25.2236 20.7196 25.3125 20.505 25.3125 20.2812V17.0885C26.3419 16.3224 27 15.0922 27 13.7186V13.0216C27 12.7426 26.9724 12.467 26.9173 12.1948L26.352 9.35975C26.2615 8.90431 26.0679 8.47568 25.7858 8.10679C25.5038 7.7379 25.141 7.43857 24.7253 7.23181C24.4364 7.08862 24.2083 6.84679 24.0823 6.55006L22.7458 3.43156C22.4204 2.67245 21.8793 2.02556 21.1897 1.57109C20.5 1.11663 19.6922 0.874596 18.8663 0.875001H8.13038ZM5.80331 4.09813C5.99837 3.64218 6.32306 3.25358 6.73707 2.98058C7.15107 2.70758 7.63615 2.5622 8.13206 2.5625H18.8679C19.3636 2.56253 19.8483 2.70806 20.262 2.98105C20.6756 3.25403 21.0001 3.64245 21.195 4.09813L22.5315 7.21494C22.815 7.87822 23.3252 8.41898 23.9709 8.74044C24.3456 8.92944 24.6139 9.28044 24.6966 9.69219L25.2636 12.5255C25.2973 12.6898 25.3136 12.8551 25.3125 13.0216V13.7186C25.315 14.3616 25.0694 14.9808 24.6268 15.4473C24.1842 15.9137 23.5788 16.1915 22.9365 16.2228C20.3124 16.3409 16.5476 16.4844 13.5 16.4844C10.4524 16.4844 6.68756 16.3426 4.0635 16.2228C3.42094 16.192 2.81506 15.9143 2.37212 15.4478C1.92918 14.9813 1.68333 14.3619 1.68581 13.7186V13.0216C1.68581 12.8551 1.70269 12.6898 1.73644 12.5255L2.30175 9.6905C2.34163 9.48706 2.42783 9.29553 2.55367 9.13077C2.6795 8.96601 2.8416 8.83245 3.02737 8.74044C3.67369 8.41981 4.18331 7.87813 4.46681 7.21494L5.80331 4.09813Z" fill="white"/>
</svg>
